<svg xmlns="http://www.w3.org/2000/svg" width="600" height="600" viewBox="0 0 600 600">
  <defs>
    <linearGradient id="grad_dermatology-congress_svg" x1="0%" y1="0%" x2="100%" y2="100%">
      <stop offset="0%" stop-color="#1e1b4b" />
      <stop offset="100%" stop-color="#4c1d95" />
    </linearGradient>
  </defs>
  <rect width="100%" height="100%" fill="url(#grad_dermatology-congress_svg)" />
  
  <!-- Grid accents -->
  <g opacity="0.08">
    <line x1="100" y1="0" x2="100" y2="600" stroke="#ffffff" stroke-width="1" />
    <line x1="200" y1="0" x2="200" y2="600" stroke="#ffffff" stroke-width="1" />
    <line x1="300" y1="0" x2="300" y2="600" stroke="#ffffff" stroke-width="1" />
    <line x1="400" y1="0" x2="400" y2="600" stroke="#ffffff" stroke-width="1" />
    <line x1="500" y1="0" x2="500" y2="600" stroke="#ffffff" stroke-width="1" />
    <line x1="0" y1="100" x2="600" y2="100" stroke="#ffffff" stroke-width="1" />
    <line x1="0" y1="200" x2="600" y2="200" stroke="#ffffff" stroke-width="1" />
    <line x1="0" y1="300" x2="600" y2="300" stroke="#ffffff" stroke-width="1" />
    <line x1="0" y1="400" x2="600" y2="400" stroke="#ffffff" stroke-width="1" />
    <line x1="0" y1="500" x2="600" y2="500" stroke="#ffffff" stroke-width="1" />
  </g>

  <rect x="25" y="25" width="550" height="550" rx="25" fill="none" stroke="#ffffff" stroke-width="2" stroke-opacity="0.1" />
  
  <!-- Icon container -->
  <g transform="translate(250, 180) scale(4.2)">
    <path d="M12 2C6.48 2 2 6.48 2 12s4.48 10 10 10 10-4.48 10-10S17.52 2 12 2zm1 17h-2v-2h2v2zm2.07-7.75l-.9.92C13.45 12.9 13 13.5 13 15h-2v-.5c0-1.1.45-2.1 1.17-2.83l1.24-1.26c.37-.36.59-.86.59-1.41 0-1.1-.9-2-2-2s-2 .9-2 2H7c0-2.76 2.24-5 5-5s5 2.24 5 5c0 1.04-.42 1.99-1.07 2.75z" fill="#ffffff" fill-opacity="0.9"/>
  </g>

  <!-- Typography -->
  
  
  
  <!-- Subtle brand water mark -->
  
</svg>