<svg xmlns="http://www.w3.org/2000/svg" width="600" height="600" viewBox="0 0 600 600">
  <defs>
    <linearGradient id="grad_derma-human_svg" x1="0%" y1="0%" x2="100%" y2="100%">
      <stop offset="0%" stop-color="#052e16" />
      <stop offset="100%" stop-color="#15803d" />
    </linearGradient>
  </defs>
  <rect width="100%" height="100%" fill="url(#grad_derma-human_svg)" />
  
  <!-- Grid accents -->
  <g opacity="0.08">
    <line x1="100" y1="0" x2="100" y2="600" stroke="#ffffff" stroke-width="1" />
    <line x1="200" y1="0" x2="200" y2="600" stroke="#ffffff" stroke-width="1" />
    <line x1="300" y1="0" x2="300" y2="600" stroke="#ffffff" stroke-width="1" />
    <line x1="400" y1="0" x2="400" y2="600" stroke="#ffffff" stroke-width="1" />
    <line x1="500" y1="0" x2="500" y2="600" stroke="#ffffff" stroke-width="1" />
    <line x1="0" y1="100" x2="600" y2="100" stroke="#ffffff" stroke-width="1" />
    <line x1="0" y1="200" x2="600" y2="200" stroke="#ffffff" stroke-width="1" />
    <line x1="0" y1="300" x2="600" y2="300" stroke="#ffffff" stroke-width="1" />
    <line x1="0" y1="400" x2="600" y2="400" stroke="#ffffff" stroke-width="1" />
    <line x1="0" y1="500" x2="600" y2="500" stroke="#ffffff" stroke-width="1" />
  </g>

  <rect x="25" y="25" width="550" height="550" rx="25" fill="none" stroke="#ffffff" stroke-width="2" stroke-opacity="0.1" />
  
  <!-- Icon container -->
  <g transform="translate(250, 180) scale(4.2)">
    <path d="M12 21.35l-1.45-1.32C5.4 15.36 2 12.28 2 8.5 2 5.42 4.42 3 7.5 3c1.74 0 3.41.81 4.5 2.09C13.09 3.81 14.76 3 16.5 3 19.58 3 22 5.42 22 8.5c0 3.78-3.4 6.86-8.55 11.54L12 21.35z" fill="none" stroke="#ffffff" stroke-width="2" stroke-opacity="0.3"/>
           <path d="M12 17.5l-2.5-2.5h5z" fill="#ffffff" fill-opacity="0.85"/>
  </g>

  <!-- Typography -->
  
  
  
  <!-- Subtle brand water mark -->
  
</svg>