<svg xmlns="http://www.w3.org/2000/svg" width="600" height="600" viewBox="0 0 600 600">
  <defs>
    <linearGradient id="grad_hero-woman-applying-serum_svg" x1="0%" y1="0%" x2="100%" y2="100%">
      <stop offset="0%" stop-color="#0f1f15" />
      <stop offset="100%" stop-color="#16a34a" />
    </linearGradient>
  </defs>
  <rect width="100%" height="100%" fill="url(#grad_hero-woman-applying-serum_svg)" />
  
  <!-- Grid accents -->
  <g opacity="0.08">
    <line x1="100" y1="0" x2="100" y2="600" stroke="#ffffff" stroke-width="1" />
    <line x1="200" y1="0" x2="200" y2="600" stroke="#ffffff" stroke-width="1" />
    <line x1="300" y1="0" x2="300" y2="600" stroke="#ffffff" stroke-width="1" />
    <line x1="400" y1="0" x2="400" y2="600" stroke="#ffffff" stroke-width="1" />
    <line x1="500" y1="0" x2="500" y2="600" stroke="#ffffff" stroke-width="1" />
    <line x1="0" y1="100" x2="600" y2="100" stroke="#ffffff" stroke-width="1" />
    <line x1="0" y1="200" x2="600" y2="200" stroke="#ffffff" stroke-width="1" />
    <line x1="0" y1="300" x2="600" y2="300" stroke="#ffffff" stroke-width="1" />
    <line x1="0" y1="400" x2="600" y2="400" stroke="#ffffff" stroke-width="1" />
    <line x1="0" y1="500" x2="600" y2="500" stroke="#ffffff" stroke-width="1" />
  </g>

  <rect x="25" y="25" width="550" height="550" rx="25" fill="none" stroke="#ffffff" stroke-width="2" stroke-opacity="0.1" />
  
  <!-- Icon container -->
  <g transform="translate(250, 180) scale(4.2)">
    <path d="M12 2C6.48 2 2 6.48 2 12s4.48 10 10 10 10-4.48 10-10S17.52 2 12 2zm1 17.93c-3.95-.49-7-3.85-7-7.93 0-.62.08-1.21.21-1.79L9 15v1c0 1.1.9 2 2 2v1.93zm6.9-2.54c-.26-.81-1-1.39-1.9-1.39h-1v-3c0-.55-.45-1-1-1H8v-2h2c.55 0 1-.45 1-1V7h2c1.1 0 2-.9 2-2v-.41c2.93 1.19 5 4.06 5 7.41 0 2.08-.8 3.97-2.1 5.39z" fill="#ffffff" fill-opacity="0.25"/>
           <path d="M12 6a3 3 0 0 0-3 3c0 2.5 3 6 3 6s3-3.5 3-3a3 3 0 0 0-3-3z" fill="#ffffff" fill-opacity="0.8"/>
  </g>

  <!-- Typography -->
  
  
  
  <!-- Subtle brand water mark -->
  
</svg>