<svg xmlns="http://www.w3.org/2000/svg" width="600" height="600" viewBox="0 0 600 600">
  <defs>
    <linearGradient id="grad_neuro-human_svg" x1="0%" y1="0%" x2="100%" y2="100%">
      <stop offset="0%" stop-color="#0f172a" />
      <stop offset="100%" stop-color="#1e293b" />
    </linearGradient>
  </defs>
  <rect width="100%" height="100%" fill="url(#grad_neuro-human_svg)" />
  
  <!-- Grid accents -->
  <g opacity="0.08">
    <line x1="100" y1="0" x2="100" y2="600" stroke="#ffffff" stroke-width="1" />
    <line x1="200" y1="0" x2="200" y2="600" stroke="#ffffff" stroke-width="1" />
    <line x1="300" y1="0" x2="300" y2="600" stroke="#ffffff" stroke-width="1" />
    <line x1="400" y1="0" x2="400" y2="600" stroke="#ffffff" stroke-width="1" />
    <line x1="500" y1="0" x2="500" y2="600" stroke="#ffffff" stroke-width="1" />
    <line x1="0" y1="100" x2="600" y2="100" stroke="#ffffff" stroke-width="1" />
    <line x1="0" y1="200" x2="600" y2="200" stroke="#ffffff" stroke-width="1" />
    <line x1="0" y1="300" x2="600" y2="300" stroke="#ffffff" stroke-width="1" />
    <line x1="0" y1="400" x2="600" y2="400" stroke="#ffffff" stroke-width="1" />
    <line x1="0" y1="500" x2="600" y2="500" stroke="#ffffff" stroke-width="1" />
  </g>

  <rect x="25" y="25" width="550" height="550" rx="25" fill="none" stroke="#ffffff" stroke-width="2" stroke-opacity="0.1" />
  
  <!-- Icon container -->
  <g transform="translate(250, 180) scale(4.2)">
    <path d="M12 3c-4.97 0-9 4.03-9 9 0 2.12.74 4.07 1.97 5.61L4.35 19.4a1 1 0 0 0 1.25 1.25l1.79-.62A8.954 8.954 0 0 0 12 21c4.97 0 9-4.03 9-9s-4.03-9-9-9zm0 15c-3.31 0-6-2.69-6-6s2.69-6 6-6 6 2.69 6 6-2.69 6-6 6z" fill="none" stroke="#ffffff" stroke-width="2" stroke-opacity="0.3"/>
           <circle cx="12" cy="12" r="3" fill="#ffffff" fill-opacity="0.85"/>
  </g>

  <!-- Typography -->
  
  
  
  <!-- Subtle brand water mark -->
  
</svg>