<svg xmlns="http://www.w3.org/2000/svg" width="600" height="600" viewBox="0 0 600 600">
  <defs>
    <linearGradient id="grad_scalp-serum-massage_svg" x1="0%" y1="0%" x2="100%" y2="100%">
      <stop offset="0%" stop-color="#065f46" />
      <stop offset="100%" stop-color="#059669" />
    </linearGradient>
  </defs>
  <rect width="100%" height="100%" fill="url(#grad_scalp-serum-massage_svg)" />
  
  <!-- Grid accents -->
  <g opacity="0.08">
    <line x1="100" y1="0" x2="100" y2="600" stroke="#ffffff" stroke-width="1" />
    <line x1="200" y1="0" x2="200" y2="600" stroke="#ffffff" stroke-width="1" />
    <line x1="300" y1="0" x2="300" y2="600" stroke="#ffffff" stroke-width="1" />
    <line x1="400" y1="0" x2="400" y2="600" stroke="#ffffff" stroke-width="1" />
    <line x1="500" y1="0" x2="500" y2="600" stroke="#ffffff" stroke-width="1" />
    <line x1="0" y1="100" x2="600" y2="100" stroke="#ffffff" stroke-width="1" />
    <line x1="0" y1="200" x2="600" y2="200" stroke="#ffffff" stroke-width="1" />
    <line x1="0" y1="300" x2="600" y2="300" stroke="#ffffff" stroke-width="1" />
    <line x1="0" y1="400" x2="600" y2="400" stroke="#ffffff" stroke-width="1" />
    <line x1="0" y1="500" x2="600" y2="500" stroke="#ffffff" stroke-width="1" />
  </g>

  <rect x="25" y="25" width="550" height="550" rx="25" fill="none" stroke="#ffffff" stroke-width="2" stroke-opacity="0.1" />
  
  <!-- Icon container -->
  <g transform="translate(250, 180) scale(4.2)">
    <path d="M12 3a9 9 0 0 0-9 9v7a1 1 0 0 0 1 1h3a1 1 0 0 0 1-1v-4a1 1 0 0 0-1-1H5v-2a7 7 0 0 1 14 0v2h-2a1 1 0 0 0-1 1v4a1 1 0 0 0 1 1h3a1 1 0 0 0 1-1v-7a9 9 0 0 0-9-9z" fill="none" stroke="#ffffff" stroke-width="2" stroke-opacity="0.4"/>
           <path d="M12 8v6M9 11h6" stroke="#ffffff" stroke-width="2" stroke-linecap="round" fill-opacity="0.9"/>
  </g>

  <!-- Typography -->
  
  
  
  <!-- Subtle brand water mark -->
  
</svg>